<svg width="20" height="20" viewBox="0 0 20 20" fill="none" xmlns="http://www.w3.org/2000/svg">
<path fill-rule="evenodd" clip-rule="evenodd" d="M10.551 0.922374L17.751 4.22237C18.0509 4.35897 18.3033 4.56955 18.4797 4.83043C18.6562 5.09131 18.7498 5.39214 18.75 5.69911V13.5613C18.7498 13.8683 18.6562 14.1692 18.4797 14.43C18.3033 14.6909 18.0509 14.9015 17.751 15.0381L10.551 18.3381C10.3009 18.4528 10.0252 18.5125 9.74552 18.5125C9.46589 18.5125 9.1901 18.4528 8.94002 18.3381L1.74004 15.0381C1.44046 14.8997 1.18902 14.6874 1.01409 14.425C0.839164 14.1626 0.747709 13.8606 0.750044 13.5531V5.69911C0.750221 5.39214 0.843813 5.09131 1.02029 4.83043C1.19678 4.56955 1.44915 4.35897 1.74904 4.22237L8.94902 0.922374C9.19792 0.808999 9.47209 0.75 9.75002 0.75C10.028 0.75 10.3021 0.808999 10.551 0.922374Z" stroke="#5B3E96" stroke-width="1.5" stroke-linecap="round" stroke-linejoin="round"/>
</svg>
