<svg width="100" height="100" viewBox="0 0 100 100" fill="none" xmlns="http://www.w3.org/2000/svg">
<path d="M51.8219 22.4846C58.4739 22.4846 63.8664 17.4513 63.8664 11.2423C63.8664 5.03336 58.4739 0 51.8219 0C45.1699 0 39.7774 5.03336 39.7774 11.2423C39.7774 17.4513 45.1699 22.4846 51.8219 22.4846Z" fill="#FF1616"/>
<path d="M11.7915 44.5442C18.3038 44.5442 23.583 39.6166 23.583 33.538C23.583 27.4595 18.3038 22.5319 11.7915 22.5319C5.27923 22.5319 0 27.4595 0 33.538C0 39.6166 5.27923 44.5442 11.7915 44.5442Z" fill="#FF1616"/>
<path d="M11.7915 81.6722C18.3038 81.6722 23.583 76.7446 23.583 70.6661C23.583 64.5875 18.3038 59.6599 11.7915 59.6599C5.27923 59.6599 0 64.5875 0 70.6661C0 76.7446 5.27923 81.6722 11.7915 81.6722Z" fill="#FF1616"/>
<path d="M51.8221 100C58.3343 100 63.6136 95.0724 63.6136 88.9939C63.6136 82.9153 58.3343 77.9877 51.8221 77.9877C45.3098 77.9877 40.0306 82.9153 40.0306 88.9939C40.0306 95.0724 45.3098 100 51.8221 100Z" fill="#FF1616"/>
<path d="M88.2085 81.6722C94.7208 81.6722 100 76.7446 100 70.6661C100 64.5875 94.7208 59.6599 88.2085 59.6599C81.6962 59.6599 76.417 64.5875 76.417 70.6661C76.417 76.7446 81.6962 81.6722 88.2085 81.6722Z" fill="#FF1616"/>
<path d="M88.2085 44.5442C94.7208 44.5442 100 39.6166 100 33.538C100 27.4595 94.7208 22.5319 88.2085 22.5319C81.6962 22.5319 76.417 27.4595 76.417 33.538C76.417 39.6166 81.6962 44.5442 88.2085 44.5442Z" fill="#FF1616"/>
<path d="M43.4209 45.7251C47.0264 45.7251 49.9493 42.9969 49.9493 39.6316C49.9493 36.2662 47.0264 33.538 43.4209 33.538C39.8154 33.538 36.8926 36.2662 36.8926 39.6316C36.8926 42.9969 39.8154 45.7251 43.4209 45.7251Z" fill="#38B6FF"/>
<path d="M36.8926 57.9121C40.4981 57.9121 43.4209 55.184 43.4209 51.8186C43.4209 48.4532 40.4981 45.7251 36.8926 45.7251C33.2871 45.7251 30.3642 48.4532 30.3642 51.8186C30.3642 55.184 33.2871 57.9121 36.8926 57.9121Z" fill="#38B6FF"/>
<path d="M43.4209 69.8158C47.0264 69.8158 49.9493 67.0876 49.9493 63.7222C49.9493 60.3569 47.0264 57.6287 43.4209 57.6287C39.8154 57.6287 36.8926 60.3569 36.8926 63.7222C36.8926 67.0876 39.8154 69.8158 43.4209 69.8158Z" fill="#38B6FF"/>
<path d="M60.1214 69.8158C63.7269 69.8158 66.6497 67.0876 66.6497 63.7222C66.6497 60.3569 63.7269 57.6287 60.1214 57.6287C56.5159 57.6287 53.593 60.3569 53.593 63.7222C53.593 67.0876 56.5159 69.8158 60.1214 69.8158Z" fill="#38B6FF"/>
<path d="M66.6497 57.9121C70.2552 57.9121 73.1781 55.184 73.1781 51.8186C73.1781 48.4532 70.2552 45.7251 66.6497 45.7251C63.0442 45.7251 60.1214 48.4532 60.1214 51.8186C60.1214 55.184 63.0442 57.9121 66.6497 57.9121Z" fill="#38B6FF"/>
<path d="M60.1214 45.7251C63.7269 45.7251 66.6497 42.9969 66.6497 39.6316C66.6497 36.2662 63.7269 33.538 60.1214 33.538C56.5159 33.538 53.593 36.2662 53.593 39.6316C53.593 42.9969 56.5159 45.7251 60.1214 45.7251Z" fill="#38B6FF"/>
</svg>
